<svg xmlns="http://www.w3.org/2000/svg" xmlns:xlink="http://www.w3.org/1999/xlink" width="4000pt" height="4000pt" viewBox="0 0 4000 4000"><g id="surface1"><rect x="0" y="0" width="4000" height="4000" style="fill:rgb(100%,100%,100%);fill-opacity:1;stroke:none;"></rect><path style=" stroke:none;fill-rule:nonzero;fill:rgb(0.799561%,0.799561%,0.799561%);fill-opacity:1;" d="M 2267.980469 2305.261719 L 1205.28125 2305.261719 L 1205.28125 2241.421875 C 1205.28125 2192.078125 1245.28125 2152.078125 1294.628906 2152.078125 L 2165.851563 2152.078125 C 2222.261719 2152.078125 2267.980469 2197.800781 2267.980469 2254.199219 L 2267.980469 2305.261719 "></path><path style=" stroke:none;fill-rule:nonzero;fill:rgb(0.799561%,0.799561%,0.799561%);fill-opacity:1;" d="M 2556.351563 2853.429688 C 2606 2853.429688 2646.941406 2814.519531 2649.460938 2764.929688 L 2684.371094 2077.378906 C 2687.371094 2017.539063 2647.578125 1963.949219 2589.429688 1949.488281 L 2140.058594 1837.820313 L 2205.339844 1437.878906 L 2324.890625 1596.089844 C 2336.140625 1614.25 2354.558594 1626.769531 2375.558594 1630.578125 L 2717.738281 1688.890625 C 2751 1694.558594 2782.660156 1672.539063 2788.921875 1639.390625 C 2795.101563 1606.621094 2774.199219 1574.851563 2741.660156 1567.558594 L 2435.410156 1498.929688 L 2237.070313 1189.261719 C 2202.058594 1128.890625 2153.058594 1080.039063 2085.601563 1071.101563 C 1985.738281 1057.859375 1929.488281 1128.769531 1914.738281 1216.761719 L 1801.640625 1891.679688 C 1789.089844 1966.601563 1830.351563 2037.929688 1897.140625 2066.648438 C 1909.078125 2073.890625 1922.621094 2078.929688 1937.289063 2081.089844 L 2471.160156 2159.898438 L 2463.128906 2758.960938 C 2462.441406 2810.929688 2504.378906 2853.429688 2556.351563 2853.429688 "></path><path style=" stroke:none;fill-rule:nonzero;fill:rgb(0.799561%,0.799561%,0.799561%);fill-opacity:1;" d="M 1947.03125 872.140625 C 1970.648438 986.609375 2081.320313 1061.929688 2196.910156 1040.859375 C 2312.511719 1019.789063 2389.488281 910.269531 2371.199219 794.828125 L 1947.03125 872.140625 "></path><path style=" stroke:none;fill-rule:nonzero;fill:rgb(0.799561%,0.799561%,0.799561%);fill-opacity:1;" d="M 2488.890625 736.890625 L 2482.449219 701.558594 L 2347.859375 726.089844 C 2304.699219 646.058594 2213.808594 599.011719 2119.511719 616.199219 C 2012.578125 635.691406 1938.789063 730.890625 1942.761719 836.421875 L 2043.101563 818.140625 L 2488.890625 736.890625 "></path><path style=" stroke:none;fill-rule:nonzero;fill:rgb(0.799561%,0.799561%,0.799561%);fill-opacity:1;" d="M 3408.449219 3246.621094 C 3268.171875 3246.621094 3154.058594 3132.5 3154.058594 2992.230469 C 3154.058594 2851.949219 3268.171875 2737.839844 3408.449219 2737.839844 C 3548.71875 2737.839844 3662.839844 2851.949219 3662.839844 2992.230469 C 3662.839844 3132.5 3548.71875 3246.621094 3408.449219 3246.621094 Z M 3408.449219 2597.128906 C 3190.578125 2597.128906 3013.339844 2774.359375 3013.339844 2992.230469 C 3013.339844 3210.089844 3190.578125 3387.328125 3408.449219 3387.328125 C 3626.308594 3387.328125 3803.550781 3210.089844 3803.550781 2992.230469 C 3803.550781 2774.359375 3626.308594 2597.128906 3408.449219 2597.128906 "></path><path style=" stroke:none;fill-rule:nonzero;fill:rgb(0.799561%,0.799561%,0.799561%);fill-opacity:1;" d="M 2938.828125 1548.121094 L 2898.320313 1338.671875 L 2820.050781 1312.53125 L 2831.878906 1277.128906 L 2930.859375 1310.191406 L 2975.488281 1541.121094 L 2938.828125 1548.121094 "></path><path style=" stroke:none;fill-rule:nonzero;fill:rgb(0.799561%,0.799561%,0.799561%);fill-opacity:1;" d="M 2838.691406 1270.941406 C 2838.691406 1324.980469 2811.359375 1368.78125 2777.648438 1368.78125 C 2743.941406 1368.78125 2716.609375 1324.980469 2716.609375 1270.941406 C 2716.609375 1216.910156 2743.941406 1173.101563 2777.648438 1173.101563 C 2811.359375 1173.101563 2838.691406 1216.910156 2838.691406 1270.941406 "></path><path style=" stroke:none;fill-rule:nonzero;fill:rgb(0.799561%,0.799561%,0.799561%);fill-opacity:1;" d="M 1292.429688 2770.148438 L 463.039063 2770.148438 L 463.039063 2690.058594 L 1292.429688 2690.058594 L 1292.429688 2770.148438 "></path><path style=" stroke:none;fill-rule:nonzero;fill:rgb(0.799561%,0.799561%,0.799561%);fill-opacity:1;" d="M 1443.230469 2609.980469 L 770.921875 2609.980469 L 770.921875 2529.890625 L 1443.230469 2529.890625 L 1443.230469 2609.980469 "></path><path style=" stroke:none;fill-rule:nonzero;fill:rgb(0.799561%,0.799561%,0.799561%);fill-opacity:1;" d="M 3104.46875 1788.671875 C 3197.46875 1791.769531 3269.070313 1707.351563 3250.820313 1616.101563 L 3250.808594 1616.039063 C 3235.46875 1539.371094 3161.859375 1488.859375 3084.800781 1502.160156 C 3036.011719 1510.578125 2982.390625 1519.808594 2933.710938 1528.738281 C 2862.5 1541.789063 2816.238281 1610.488281 2829.871094 1681.601563 C 2902.890625 2062.710938 2892.359375 2594.800781 2839.679688 2896.859375 L 2319.601563 2896.859375 C 2212.460938 2896.859375 2130.839844 2800.871094 2148.140625 2695.128906 C 2167.621094 2576.058594 2190.710938 2431.171875 2203.179688 2339.449219 L 1268.941406 2339.449219 C 1160.351563 2408.910156 1078.160156 2504.679688 1021.019531 2609.980469 L 1637.46875 2609.980469 C 1659.578125 2609.980469 1677.511719 2627.898438 1677.511719 2650.019531 C 1677.511719 2672.140625 1659.578125 2690.058594 1637.46875 2690.058594 L 983.03125 2690.058594 C 941.789063 2790.589844 921.558594 2895.671875 921.558594 2992.230469 L 2951.210938 2992.230469 C 2951.210938 2795.71875 3075.808594 2627.808594 3250.148438 2563.269531 C 3183.730469 2259.601563 3059.539063 1935.019531 2981.730469 1784.570313 L 3104.46875 1788.671875 "></path><path style=" stroke:none;fill-rule:nonzero;fill:rgb(0.799561%,0.799561%,0.799561%);fill-opacity:1;" d="M 1160.039063 1924.160156 L 346.351563 1924.160156 L 346.351563 1844.070313 L 1160.039063 1844.070313 L 1160.039063 1924.160156 "></path><path style=" stroke:none;fill-rule:nonzero;fill:rgb(0.799561%,0.799561%,0.799561%);fill-opacity:1;" d="M 1066.238281 2339.691406 L 196.449219 2339.691406 L 196.449219 2259.601563 L 1066.238281 2259.601563 L 1066.238281 2339.691406 "></path><path style=" stroke:none;fill-rule:nonzero;fill:rgb(0.799561%,0.799561%,0.799561%);fill-opacity:1;" d="M 1160.039063 1763.980469 L 601.273438 1763.980469 L 601.273438 1683.890625 L 1160.039063 1683.890625 L 1160.039063 1763.980469 "></path><path style=" stroke:none;fill-rule:nonzero;fill:rgb(0.799561%,0.799561%,0.799561%);fill-opacity:1;" d="M 1593.878906 1282.351563 L 891.777344 1282.351563 C 854.6875 1282.351563 824.617188 1312.410156 824.617188 1349.5 L 824.617188 1763.980469 L 1132.109375 1763.980469 C 1154.230469 1763.980469 1172.148438 1781.910156 1172.148438 1804.019531 C 1172.148438 1826.140625 1154.230469 1844.070313 1132.109375 1844.070313 L 824.617188 1844.070313 L 824.617188 2051.609375 C 824.617188 2088.699219 854.683594 2118.769531 891.773438 2118.769531 L 1593.878906 2118.769531 C 1630.96875 2118.769531 1661.039063 2088.699219 1661.039063 2051.609375 L 1661.039063 1349.5 C 1661.039063 1312.410156 1630.96875 1282.351563 1593.878906 1282.351563 "></path><path style=" stroke:none;fill-rule:nonzero;fill:rgb(0.799561%,0.799561%,0.799561%);fill-opacity:1;" d="M 1470.601563 3246.621094 C 1341.628906 3246.621094 1234.839844 3150.121094 1218.460938 3025.539063 L 1077.011719 3025.539063 C 1093.988281 3227.859375 1263.96875 3387.328125 1470.601563 3387.328125 C 1677.238281 3387.328125 1847.210938 3227.859375 1864.199219 3025.539063 L 1722.738281 3025.539063 C 1706.359375 3150.121094 1599.578125 3246.621094 1470.601563 3246.621094 "></path><path style=" stroke:none;fill-rule:nonzero;fill:rgb(0.799561%,0.799561%,0.799561%);fill-opacity:1;" d="M 3026.578125 2610.359375 C 2924.570313 2712.351563 2868.398438 2847.96875 2868.398438 2992.230469 L 2976.109375 2992.230469 C 2976.109375 2876.738281 3021.078125 2768.179688 3102.738281 2686.519531 C 3244.929688 2544.351563 3463.648438 2518.488281 3634.648438 2623.660156 L 3691.078125 2531.910156 C 3477.429688 2400.511719 3204.171875 2432.761719 3026.578125 2610.359375 "></path></g></svg>